<mxfile host="app.diagrams.net" modified="2023-08-15T08:02:06.447Z" agent="Mozilla/5.0 (Windows NT 10.0; Win64; x64) AppleWebKit/537.36 (KHTML, like Gecko) Chrome/115.0.0.0 Safari/537.36" etag="NHfYhCLiKO2wbrP6Pwok" version="21.2.9" type="github">
  <diagram id="lBMWa9uyf9dHduqDXFlB" name="Seite-1">
    <mxGraphModel dx="1221" dy="695" grid="1" gridSize="10" guides="1" tooltips="1" connect="1" arrows="1" fold="1" page="1" pageScale="1" pageWidth="827" pageHeight="1169" math="0" shadow="0">
      <root>
        <mxCell id="0" />
        <mxCell id="1" parent="0" />
        <mxCell id="_1GSaqV042yr8uf1ESIo-6" value="" style="whiteSpace=wrap;html=1;" vertex="1" parent="1">
          <mxGeometry x="260" y="50" width="260" height="682.76" as="geometry" />
        </mxCell>
        <mxCell id="_1GSaqV042yr8uf1ESIo-17" style="edgeStyle=orthogonalEdgeStyle;rounded=0;orthogonalLoop=1;jettySize=auto;html=1;exitX=1;exitY=0.3333333333333333;exitDx=0;exitDy=0;exitPerimeter=0;entryX=0;entryY=0.5;entryDx=0;entryDy=0;" edge="1" parent="1" source="_1GSaqV042yr8uf1ESIo-1" target="_1GSaqV042yr8uf1ESIo-8">
          <mxGeometry relative="1" as="geometry" />
        </mxCell>
        <mxCell id="_1GSaqV042yr8uf1ESIo-18" style="edgeStyle=orthogonalEdgeStyle;rounded=0;orthogonalLoop=1;jettySize=auto;html=1;exitX=1;exitY=0.3333333333333333;exitDx=0;exitDy=0;exitPerimeter=0;entryX=0;entryY=0.5;entryDx=0;entryDy=0;" edge="1" parent="1" source="_1GSaqV042yr8uf1ESIo-1" target="_1GSaqV042yr8uf1ESIo-9">
          <mxGeometry relative="1" as="geometry" />
        </mxCell>
        <mxCell id="_1GSaqV042yr8uf1ESIo-19" style="edgeStyle=orthogonalEdgeStyle;rounded=0;orthogonalLoop=1;jettySize=auto;html=1;exitX=1;exitY=0.3333333333333333;exitDx=0;exitDy=0;exitPerimeter=0;entryX=0;entryY=0.5;entryDx=0;entryDy=0;" edge="1" parent="1" source="_1GSaqV042yr8uf1ESIo-1" target="_1GSaqV042yr8uf1ESIo-10">
          <mxGeometry relative="1" as="geometry" />
        </mxCell>
        <mxCell id="_1GSaqV042yr8uf1ESIo-20" style="edgeStyle=orthogonalEdgeStyle;rounded=0;orthogonalLoop=1;jettySize=auto;html=1;exitX=1;exitY=0.3333333333333333;exitDx=0;exitDy=0;exitPerimeter=0;entryX=0;entryY=0.5;entryDx=0;entryDy=0;" edge="1" parent="1" source="_1GSaqV042yr8uf1ESIo-1" target="_1GSaqV042yr8uf1ESIo-11">
          <mxGeometry relative="1" as="geometry" />
        </mxCell>
        <mxCell id="_1GSaqV042yr8uf1ESIo-21" style="edgeStyle=orthogonalEdgeStyle;rounded=0;orthogonalLoop=1;jettySize=auto;html=1;exitX=1;exitY=0.3333333333333333;exitDx=0;exitDy=0;exitPerimeter=0;entryX=0;entryY=0.5;entryDx=0;entryDy=0;" edge="1" parent="1" source="_1GSaqV042yr8uf1ESIo-1" target="_1GSaqV042yr8uf1ESIo-12">
          <mxGeometry relative="1" as="geometry" />
        </mxCell>
        <mxCell id="_1GSaqV042yr8uf1ESIo-24" style="edgeStyle=orthogonalEdgeStyle;rounded=0;orthogonalLoop=1;jettySize=auto;html=1;exitX=1;exitY=0.3333333333333333;exitDx=0;exitDy=0;exitPerimeter=0;entryX=0;entryY=0.5;entryDx=0;entryDy=0;" edge="1" parent="1" source="_1GSaqV042yr8uf1ESIo-1" target="_1GSaqV042yr8uf1ESIo-14">
          <mxGeometry relative="1" as="geometry" />
        </mxCell>
        <mxCell id="_1GSaqV042yr8uf1ESIo-25" style="edgeStyle=orthogonalEdgeStyle;rounded=0;orthogonalLoop=1;jettySize=auto;html=1;exitX=1;exitY=0.3333333333333333;exitDx=0;exitDy=0;exitPerimeter=0;entryX=0;entryY=0.5;entryDx=0;entryDy=0;" edge="1" parent="1" source="_1GSaqV042yr8uf1ESIo-1" target="_1GSaqV042yr8uf1ESIo-13">
          <mxGeometry relative="1" as="geometry" />
        </mxCell>
        <mxCell id="_1GSaqV042yr8uf1ESIo-1" value="Benutzer" style="shape=umlActor;verticalLabelPosition=bottom;verticalAlign=top;html=1;outlineConnect=0;" vertex="1" parent="1">
          <mxGeometry x="80" y="383.62" width="30" height="60" as="geometry" />
        </mxCell>
        <mxCell id="_1GSaqV042yr8uf1ESIo-7" value="Flask-Applikation" style="text;html=1;strokeColor=none;fillColor=none;align=center;verticalAlign=middle;whiteSpace=wrap;rounded=0;container=0;" vertex="1" parent="1">
          <mxGeometry x="325" y="60" width="130" height="40" as="geometry" />
        </mxCell>
        <mxCell id="_1GSaqV042yr8uf1ESIo-8" value="Abfrage der Rohdaten" style="ellipse;whiteSpace=wrap;html=1;aspect=fixed;" vertex="1" parent="1">
          <mxGeometry x="335" y="120" width="110" height="61.52" as="geometry" />
        </mxCell>
        <mxCell id="_1GSaqV042yr8uf1ESIo-9" value="EinfÃ¼gung von Rohdaten" style="ellipse;whiteSpace=wrap;html=1;aspect=fixed;" vertex="1" parent="1">
          <mxGeometry x="335" y="190" width="110" height="73.62" as="geometry" />
        </mxCell>
        <mxCell id="_1GSaqV042yr8uf1ESIo-10" value="Erstellung der CAMT053-Datei" style="ellipse;whiteSpace=wrap;html=1;aspect=fixed;" vertex="1" parent="1">
          <mxGeometry x="335" y="280" width="110" height="73.62" as="geometry" />
        </mxCell>
        <mxCell id="_1GSaqV042yr8uf1ESIo-11" value="Importierung der Daten aus CAMT053-Datei" style="ellipse;whiteSpace=wrap;html=1;aspect=fixed;" vertex="1" parent="1">
          <mxGeometry x="335" y="370" width="110" height="73.62" as="geometry" />
        </mxCell>
        <mxCell id="_1GSaqV042yr8uf1ESIo-12" value="Importierung der Daten aus Rohdaten" style="ellipse;whiteSpace=wrap;html=1;aspect=fixed;" vertex="1" parent="1">
          <mxGeometry x="335" y="460" width="110" height="73.62" as="geometry" />
        </mxCell>
        <mxCell id="_1GSaqV042yr8uf1ESIo-13" value="Abfrage der Daten aus der importierten CAMT053-Datei" style="ellipse;whiteSpace=wrap;html=1;aspect=fixed;" vertex="1" parent="1">
          <mxGeometry x="330" y="540" width="110" height="73.62" as="geometry" />
        </mxCell>
        <mxCell id="_1GSaqV042yr8uf1ESIo-14" value="Abfrage der Daten aus der importierten Rohdaten" style="ellipse;whiteSpace=wrap;html=1;aspect=fixed;" vertex="1" parent="1">
          <mxGeometry x="330" y="620" width="110" height="73.62" as="geometry" />
        </mxCell>
      </root>
    </mxGraphModel>
  </diagram>
</mxfile>
